<?xml version="1.0" encoding="UTF-8" standalone="no"?>
<svg
   version="1.0"
   width="187.54552pt"
   height="223.83945pt"
   viewBox="0 0 187.54552 223.83945"
   preserveAspectRatio="xMidYMid meet"
   id="svg116"
   sodipodi:docname="town.svg"
   inkscape:version="1.1.2 (0a00cf5339, 2022-02-04)"
   xmlns:inkscape="http://www.inkscape.org/namespaces/inkscape"
   xmlns:sodipodi="http://sodipodi.sourceforge.net/DTD/sodipodi-0.dtd"
   xmlns="http://www.w3.org/2000/svg"
   xmlns:svg="http://www.w3.org/2000/svg">
  <defs
     id="defs120" />
  <sodipodi:namedview
     id="namedview118"
     pagecolor="#ffffff"
     bordercolor="#666666"
     borderopacity="1.0"
     inkscape:pageshadow="2"
     inkscape:pageopacity="0.0"
     inkscape:pagecheckerboard="0"
     inkscape:document-units="pt"
     showgrid="false"
     inkscape:zoom="2.1825"
     inkscape:cx="198.16724"
     inkscape:cy="198.85452"
     inkscape:window-width="2560"
     inkscape:window-height="1372"
     inkscape:window-x="0"
     inkscape:window-y="0"
     inkscape:window-maximized="1"
     inkscape:current-layer="svg116" />
  <g
     transform="matrix(0.1,0,0,-0.1,-52.306259,247.83944)"
     fill="#000000"
     stroke="none"
     id="g114">
    <path
       d="m 2014,2458 c -11,-13 -47,-59 -79,-103 -63,-86 -144,-168 -212,-216 -40,-28 -56,-57 -33,-60 6,-1 16,-2 23,-3 7,-1 12,-17 13,-40 0,-28 7,-44 24,-58 21,-17 23,-25 22,-124 -1,-81 -4,-110 -16,-123 -9,-10 -16,-24 -16,-32 0,-11 -22,-14 -110,-14 -91,0 -112,-3 -127,-18 -17,-17 -17,-19 5,-61 23,-43 26,-87 7,-92 -5,-1 -28,34 -50,79 l -40,82 -50,3 c -94,5 -98,7 -91,55 16,102 14,110 -24,120 -54,14 -208,3 -228,-17 -16,-15 -15,-20 6,-60 13,-24 22,-54 20,-67 l -3,-24 H 883 c -102,0 -176,-4 -181,-10 -5,-5 -33,-55 -62,-110 -29,-55 -63,-113 -75,-130 -52,-70 -56,-115 -10,-115 24,0 24,0 27,-132 3,-110 6,-133 18,-133 8,0 19,-4 23,-10 12,-15 -7,-404 -20,-392 -5,5 -43,-29 -43,-38 0,-9 179,-5 185,4 3,6 -14,11 -37,13 -33,2 -42,7 -39,18 5,16 18,242 20,343 l 1,57 h 180 180 v -69 c 0,-61 -2,-69 -20,-74 -19,-5 -21,-12 -18,-89 l 3,-83 38,-3 37,-3 v -55 c 0,-47 -2,-54 -20,-54 -11,0 -20,-4 -20,-10 0,-5 9,-10 20,-10 14,0 20,-6 19,-22 0,-25 -16,-107 -18,-95 -1,7 -41,-29 -41,-38 0,-9 179,-5 185,4 3,6 -14,11 -37,13 -33,2 -42,7 -39,18 5,16 18,242 20,343 l 1,57 h 369 368 l 7,-107 c 4,-60 9,-152 13,-205 l 6,-98 h -26 c -35,0 -44,-18 -15,-29 30,-11 175,-14 191,-4 6,4 17,8 22,9 6,0 16,2 23,2 18,3 15,22 -4,22 -10,0 -14,6 -11,14 11,27 -7,26 -26,-1 l -19,-28 5,37 c 3,21 2,38 -3,38 -10,0 -20,-25 -20,-51 0,-10 -4,-19 -10,-19 -13,0 -13,27 2,90 l 12,51 50,-6 c 28,-4 83,-6 121,-6 174,3 170,2 149,14 -10,7 -30,12 -44,12 h -25 l -3,470 c -1,259 0,485 3,503 4,23 11,32 26,32 40,0 46,81 7,108 -16,11 -18,28 -18,128 0,94 3,114 15,114 14,0 21,18 27,70 2,17 10,26 26,28 35,5 26,24 -33,76 -61,52 -169,178 -235,274 -46,67 -65,75 -96,40 z m 71,-94 c 9,-14 14,-32 11,-40 -3,-9 2,-17 12,-21 21,-7 62,-43 62,-55 0,-4 -27,-8 -61,-8 -40,0 -58,-4 -54,-11 4,-6 34,-9 72,-7 59,2 66,0 83,-22 l 19,-25 -87,-3 c -48,-2 -91,-7 -95,-11 -5,-5 41,-12 101,-16 80,-5 112,-11 116,-21 5,-12 -33,-14 -231,-14 -226,0 -236,1 -220,18 14,13 39,18 107,20 107,5 121,22 18,22 h -71 l 23,24 c 13,15 37,27 59,29 31,3 33,5 14,12 -13,4 -23,11 -23,14 0,18 50,52 83,58 37,6 42,23 6,23 -23,0 -24,9 -3,38 20,29 38,28 59,-4 z m 203,-309 c 6,-3 12,-12 12,-22 0,-17 -16,-18 -252,-15 -139,2 -257,7 -262,12 -5,5 -6,15 -4,22 5,11 53,13 249,10 134,-2 250,-5 257,-7 z m -439,-272 c 1,-41 -2,-53 -14,-53 -12,0 -15,19 -15,113 0,63 3,117 8,121 7,8 19,-89 21,-181 z m 355,76 c 4,-61 5,-113 2,-116 -3,-3 -38,-8 -78,-10 l -73,-5 32,21 c 17,11 37,29 42,40 15,27 13,81 -3,110 -8,14 -12,31 -9,38 3,7 0,13 -6,13 -6,0 -11,-5 -11,-10 0,-7 -6,-7 -19,0 -28,15 -67,12 -81,-5 -11,-13 -14,-13 -25,2 -8,10 -17,15 -21,11 -4,-4 -2,-14 4,-21 9,-10 8,-18 -3,-33 -17,-23 -19,-77 -4,-105 5,-11 24,-28 40,-38 l 29,-18 -70,-1 -70,-2 v 120 120 h 159 158 z m 56,-16 c 0,-62 -4,-103 -10,-103 -6,0 -10,46 -10,118 0,79 3,112 10,102 5,-8 10,-61 10,-117 z m -238,28 c -4,-36 -1,-41 28,-56 34,-18 56,-11 29,9 -9,6 -21,28 -27,49 -9,31 -8,37 6,37 27,0 52,-31 52,-67 0,-62 -65,-94 -118,-57 -30,21 -30,76 0,104 30,28 34,26 30,-19 z m -765,-67 c 5,-15 -157,-26 -175,-12 -11,9 -11,13 0,20 19,12 171,5 175,-8 z m -37,-91 c 0,-26 -3,-28 -49,-31 -45,-3 -49,-1 -53,22 -7,34 -3,36 54,36 46,0 48,-1 48,-27 z m 1084,-32 c 11,-17 -24,-20 -267,-21 -222,0 -270,4 -250,24 10,10 511,7 517,-3 z m -577,-47 c 5,-15 -157,-26 -175,-12 -11,9 -11,13 0,20 19,12 171,5 175,-8 z m -374,-25 c 48,-13 48,-29 -2,-29 -54,0 -102,-11 -95,-21 3,-5 39,-9 79,-9 64,0 76,-3 85,-20 11,-20 8,-20 -116,-18 -121,3 -127,2 -141,-19 -14,-21 -23,-23 -109,-23 -121,0 -124,-18 -4,-22 l 90,-3 -20,-32 -20,-33 H 860 c -225,0 -240,1 -240,18 0,42 21,52 110,53 93,2 120,7 99,19 -7,5 -45,6 -86,3 -40,-3 -73,-4 -73,-1 0,3 5,19 11,37 11,30 46,50 67,37 14,-8 102,5 102,15 0,5 -21,9 -47,9 -61,0 -81,11 -57,31 13,11 69,15 243,19 242,5 304,3 364,-11 z m 887,-290 c 0,-281 -1,-299 -18,-299 -23,0 -42,-19 -42,-42 0,-10 -4,-18 -9,-18 -5,0 -16,-2 -23,-5 -8,-3 -27,6 -42,20 -22,20 -25,28 -16,44 17,32 12,45 -30,89 -35,36 -38,42 -20,42 26,0 25,12 -5,60 -14,22 -25,42 -25,45 0,3 24,5 53,5 29,0 58,5 65,12 17,17 15,55 -3,62 -11,4 -15,22 -15,75 0,89 -5,99 -46,107 -57,11 -68,-7 -60,-97 6,-71 5,-77 -14,-82 -13,-3 -20,0 -20,10 0,27 -74,156 -92,161 -14,3 -18,15 -18,53 v 48 l 43,3 c 23,2 108,4 190,4 l 147,1 z m -446,285 c 21,-8 23,-94 2,-94 -31,0 -46,13 -46,40 0,53 11,67 44,54 z m -104,-61 c 0,-26 -3,-28 -49,-31 -45,-3 -49,-1 -53,22 -7,34 -3,36 54,36 46,0 48,-1 48,-27 z m 390,-133 c 0,-63 -2,-70 -20,-70 -18,0 -20,7 -20,70 0,63 2,70 20,70 18,0 20,-7 20,-70 z m -257,29 c 48,-13 48,-29 -2,-29 -54,0 -102,-11 -95,-21 3,-5 39,-9 79,-9 72,0 75,-1 90,-30 23,-45 19,-50 -35,-50 -27,0 -50,-4 -50,-10 0,-5 25,-10 55,-10 50,0 56,-2 70,-30 9,-16 14,-30 13,-31 -2,0 -195,-3 -430,-5 -413,-5 -428,-5 -428,14 0,42 21,52 110,53 93,2 120,7 99,19 -7,5 -45,6 -86,3 -40,-3 -73,-4 -73,-1 0,3 5,19 11,37 11,30 46,50 67,37 14,-8 102,5 102,15 0,5 -21,9 -47,9 -61,0 -81,11 -57,31 13,11 69,15 243,19 242,5 304,3 364,-11 z m -759,-117 c 2,-4 -13,-34 -35,-66 -21,-32 -39,-64 -39,-72 0,-8 -7,-14 -15,-14 -11,0 -15,13 -15,54 0,35 -5,58 -15,66 -26,21 -17,29 38,33 28,2 57,4 64,5 6,1 14,-1 17,-6 z m -214,-9 c -74,-6 -79,-12 -73,-83 l 6,-60 h -42 -41 v 75 75 l 103,-2 c 61,-1 80,-3 47,-5 z m -186,-19 c 3,-9 6,-40 6,-70 0,-47 -2,-54 -20,-54 -18,0 -20,7 -20,70 0,53 3,70 14,70 8,0 17,-7 20,-16 z m 1436,4 c 0,-11 -78,-10 -85,1 -3,5 14,9 40,8 25,-1 45,-5 45,-9 z M 850,1244 c 0,-20 -4,-25 -16,-20 -9,3 -18,6 -20,6 -2,0 -4,9 -4,20 0,13 7,20 20,20 15,0 20,-7 20,-26 z m 70,0 c 0,-20 -4,-25 -16,-20 -9,3 -18,6 -20,6 -2,0 -4,9 -4,20 0,13 7,20 20,20 15,0 20,-7 20,-26 z m -70,-59 c 0,-8 -7,-15 -15,-15 -8,0 -15,7 -15,15 0,8 7,15 15,15 8,0 15,-7 15,-15 z m 74,0 c 4,-11 -1,-15 -19,-15 -16,0 -25,6 -25,15 0,8 9,15 19,15 10,0 21,-7 25,-15 z m 794,-35 h 172 v -75 -75 h -35 -35 v 53 c 0,28 -4,58 -9,66 -12,18 -145,28 -165,12 -10,-9 -13,-27 -9,-71 l 6,-60 h -107 -106 v 54 c 0,35 -5,58 -15,66 -8,7 -15,16 -15,21 0,8 91,18 125,12 11,-1 98,-3 193,-3 z m -398,-7 c -74,-6 -79,-12 -73,-83 l 6,-60 h -42 -41 v 75 75 l 103,-2 c 61,-1 80,-3 47,-5 z m -186,-19 c 3,-9 6,-40 6,-70 0,-47 -2,-54 -20,-54 -18,0 -20,7 -20,70 0,53 3,70 14,70 8,0 17,-7 20,-16 z m 836,-54 c 0,-63 -2,-70 -20,-70 -18,0 -20,7 -20,63 0,66 4,77 27,77 10,0 13,-18 13,-70 z m -920,40 c 0,-19 -7,-20 -210,-20 -203,0 -210,1 -210,20 0,19 7,20 210,20 203,0 210,-1 210,-20 z m 990,-15 c 0,-7 10,-19 23,-28 l 22,-15 -37,-39 -38,-38 v 72 c 0,60 3,71 15,67 8,-4 15,-12 15,-19 z m -720,-21 c 0,-20 -4,-25 -16,-20 -9,3 -18,6 -20,6 -2,0 -4,9 -4,20 0,13 7,20 20,20 15,0 20,-7 20,-26 z m 70,0 c 0,-20 -4,-25 -16,-20 -9,3 -18,6 -20,6 -2,0 -4,9 -4,20 0,13 7,20 20,20 15,0 20,-7 20,-26 z m 320,0 c 0,-20 -4,-25 -16,-20 -9,3 -18,6 -20,6 -2,0 -4,9 -4,20 0,13 7,20 20,20 15,0 20,-7 20,-26 z m 70,0 c 0,-20 -4,-25 -16,-20 -9,3 -18,6 -20,6 -2,0 -4,9 -4,20 0,13 7,20 20,20 15,0 20,-7 20,-26 z m -460,-59 c 0,-8 -7,-15 -15,-15 -8,0 -15,7 -15,15 0,8 7,15 15,15 8,0 15,-7 15,-15 z m 74,0 c 4,-11 -1,-15 -19,-15 -16,0 -25,6 -25,15 0,8 9,15 19,15 10,0 21,-7 25,-15 z m 316,0 c 0,-8 -7,-15 -15,-15 -8,0 -15,7 -15,15 0,8 7,15 15,15 8,0 15,-7 15,-15 z m 74,0 c 4,-11 -1,-15 -19,-15 -16,0 -25,6 -25,15 0,8 9,15 19,15 10,0 21,-7 25,-15 z m 307,-54 c 16,-17 29,-40 29,-54 0,-38 10,-57 31,-57 15,0 18,-9 21,-52 3,-52 4,-53 36,-56 l 32,-3 v -58 c 0,-70 2,-69 -137,-63 -61,3 -93,8 -93,15 0,7 -6,24 -14,38 -16,32 -31,158 -21,188 3,12 13,21 21,21 9,0 14,10 14,29 0,25 32,81 46,81 3,0 19,-13 35,-29 z m 149,4 c 0,-8 -7,-15 -15,-15 -8,0 -15,7 -15,15 0,8 7,15 15,15 8,0 15,-7 15,-15 z m -277,-11 c 3,-3 3,-12 0,-20 -4,-12 -75,-14 -434,-14 -422,0 -429,0 -429,20 0,20 7,20 428,20 236,0 431,-3 435,-6 z m 277,-54 c 0,-17 -7,-20 -39,-20 -40,0 -57,11 -46,30 3,6 24,10 46,10 32,0 39,-3 39,-20 z M 1060,850 c 0,-11 -4,-20 -10,-20 -5,0 -10,9 -10,20 0,11 5,20 10,20 6,0 10,-9 10,-20 z m 40,4 c 0,-8 -4,-12 -10,-9 -5,3 -10,10 -10,16 0,5 5,9 10,9 6,0 10,-7 10,-16 z m 1140,-49 c 0,-28 -4,-35 -20,-35 -16,0 -20,7 -20,35 0,28 4,35 20,35 16,0 20,-7 20,-35 z M 1070,790 c 0,-11 -7,-20 -15,-20 -8,0 -15,9 -15,20 0,11 7,20 15,20 8,0 15,-9 15,-20 z m 945,-217 c -3,-10 -9,-39 -12,-66 -7,-61 -15,-53 -20,23 -4,56 -3,60 17,60 17,0 21,-4 15,-17 z"
       id="path2" />
    <path
       d="m 2000,2230 c 0,-5 7,-10 16,-10 8,0 12,5 9,10 -3,6 -10,10 -16,10 -5,0 -9,-4 -9,-10 z"
       id="path4" />
    <path
       d="m 1916,1911 c -4,-5 -2,-12 3,-15 5,-4 12,-2 15,3 4,5 2,12 -3,15 -5,4 -12,2 -15,-3 z"
       id="path6" />
    <path
       d="m 2140,1904 c 0,-8 5,-12 10,-9 6,3 10,10 10,16 0,5 -4,9 -10,9 -5,0 -10,-7 -10,-16 z"
       id="path8" />
    <path
       d="m 1900,1846 c 0,-9 7,-16 16,-16 17,0 14,22 -4,28 -7,2 -12,-3 -12,-12 z"
       id="path10" />
    <path
       d="m 2155,1851 c -6,-11 9,-23 19,-14 9,9 7,23 -3,23 -6,0 -12,-4 -16,-9 z"
       id="path12" />
    <path
       d="m 1915,1780 c 4,-6 11,-8 16,-5 14,9 11,15 -7,15 -8,0 -12,-5 -9,-10 z"
       id="path14" />
    <path
       d="m 2125,1761 c -3,-5 -1,-12 5,-16 5,-3 10,1 10,9 0,18 -6,21 -15,7 z"
       id="path16" />
    <path
       d="m 865,1561 c -3,-5 -1,-12 4,-16 14,-8 62,5 55,16 -7,12 -51,12 -59,0 z"
       id="path18" />
    <path
       d="m 945,1560 c -3,-5 3,-10 15,-10 12,0 18,5 15,10 -3,6 -10,10 -15,10 -5,0 -12,-4 -15,-10 z"
       id="path20" />
    <path
       d="m 1010,1560 c 0,-6 28,-10 65,-10 37,0 65,4 65,10 0,6 -28,10 -65,10 -37,0 -65,-4 -65,-10 z"
       id="path22" />
    <path
       d="m 1170,1560 c 0,-5 9,-10 20,-10 11,0 20,5 20,10 0,6 -9,10 -20,10 -11,0 -20,-4 -20,-10 z"
       id="path24" />
    <path
       d="m 875,1470 c -8,-13 9,-20 24,-11 10,6 9,10 -3,14 -8,3 -18,2 -21,-3 z"
       id="path26" />
    <path
       d="m 1335,1391 c -3,-5 -1,-12 4,-16 14,-8 62,5 55,16 -7,12 -51,12 -59,0 z"
       id="path28" />
    <path
       d="m 1415,1390 c -3,-5 3,-10 15,-10 12,0 18,5 15,10 -3,6 -10,10 -15,10 -5,0 -12,-4 -15,-10 z"
       id="path30" />
    <path
       d="m 1480,1390 c 0,-6 28,-10 65,-10 37,0 65,4 65,10 0,6 -28,10 -65,10 -37,0 -65,-4 -65,-10 z"
       id="path32" />
    <path
       d="m 1640,1390 c 0,-5 9,-10 20,-10 11,0 20,5 20,10 0,6 -9,10 -20,10 -11,0 -20,-4 -20,-10 z"
       id="path34" />
    <path
       d="m 1345,1300 c -8,-13 9,-20 24,-11 10,6 9,10 -3,14 -8,3 -18,2 -21,-3 z"
       id="path36" />
    <path
       d="m 1665,1299 c -10,-15 1,-23 20,-15 9,3 13,10 10,16 -8,13 -22,13 -30,-1 z"
       id="path38" />
    <path
       d="m 1735,1300 c -8,-12 20,-24 35,-15 6,3 8,11 5,16 -8,12 -32,12 -40,-1 z"
       id="path40" />
    <path
       d="m 1430,1290 c 0,-6 38,-10 95,-10 57,0 95,4 95,10 0,6 -38,10 -95,10 -57,0 -95,-4 -95,-10 z"
       id="path42" />
    <path
       d="m 1000,1000 c 0,-5 5,-10 10,-10 6,0 10,5 10,10 0,6 -4,10 -10,10 -5,0 -10,-4 -10,-10 z"
       id="path44" />
    <path
       d="m 935,950 c -3,-5 1,-10 10,-10 9,0 13,5 10,10 -3,6 -8,10 -10,10 -2,0 -7,-4 -10,-10 z"
       id="path46" />
    <path
       d="m 725,940 c -3,-5 1,-10 10,-10 9,0 13,5 10,10 -3,6 -8,10 -10,10 -2,0 -7,-4 -10,-10 z"
       id="path48" />
    <path
       d="m 793,910 c -22,-9 -23,-14 -23,-145 0,-74 1,-138 2,-142 0,-5 10,-6 21,-5 16,3 19,-1 14,-17 -3,-12 -2,-19 3,-16 12,8 19,44 9,51 -5,3 -9,59 -9,125 0,78 4,118 10,114 6,-4 10,-55 10,-119 0,-81 4,-117 13,-124 19,-16 177,-28 177,-13 0,6 -15,11 -35,11 -19,0 -35,3 -35,8 -2,69 -22,258 -27,263 -13,13 -107,19 -130,9 z M 903,757 c 4,-65 3,-115 -2,-113 -10,7 -21,171 -14,209 3,15 7,27 8,25 1,-2 5,-56 8,-121 z m -34,-60 c 1,-36 -3,-56 -9,-52 -6,4 -9,48 -9,103 1,82 3,90 10,52 4,-25 8,-71 8,-103 z"
       id="path50" />
    <path
       d="m 1820,850 c 0,-5 5,-10 10,-10 6,0 10,5 10,10 0,6 -4,10 -10,10 -5,0 -10,-4 -10,-10 z"
       id="path52" />
    <path
       d="m 1470,830 c 0,-5 5,-10 10,-10 6,0 10,5 10,10 0,6 -4,10 -10,10 -5,0 -10,-4 -10,-10 z"
       id="path54" />
    <path
       d="m 1600,790 c 0,-5 5,-10 10,-10 6,0 10,5 10,10 0,6 -4,10 -10,10 -5,0 -10,-4 -10,-10 z"
       id="path56" />
    <path
       d="m 1405,780 c -3,-5 1,-10 10,-10 9,0 13,5 10,10 -3,6 -8,10 -10,10 -2,0 -7,-4 -10,-10 z"
       id="path58" />
    <path
       d="m 1195,770 c -3,-5 1,-10 10,-10 9,0 13,5 10,10 -3,6 -8,10 -10,10 -2,0 -7,-4 -10,-10 z"
       id="path60" />
    <path
       d="m 1655,750 c 4,-6 11,-8 16,-5 14,9 11,15 -7,15 -8,0 -12,-5 -9,-10 z"
       id="path62" />
    <path
       d="m 1263,740 c -22,-9 -23,-14 -23,-145 0,-74 1,-138 2,-142 0,-5 10,-6 21,-5 16,3 19,-1 14,-17 -3,-12 -2,-19 3,-16 12,8 19,44 9,51 -5,3 -9,59 -9,125 0,78 4,118 10,114 6,-4 10,-55 10,-119 0,-81 4,-117 13,-124 19,-16 177,-28 177,-13 0,6 -15,11 -35,11 -19,0 -35,3 -35,8 -2,69 -22,258 -27,263 -13,13 -107,19 -130,9 z m 110,-153 c 4,-65 3,-115 -2,-113 -10,7 -21,171 -14,209 3,15 7,27 8,25 1,-2 5,-56 8,-121 z m -34,-60 c 1,-36 -3,-56 -9,-52 -6,4 -9,48 -9,103 1,82 3,90 10,52 4,-25 8,-71 8,-103 z"
       id="path64" />
    <path
       d="m 1484,727 c -3,-8 -4,-47 -2,-88 l 3,-74 49,-3 c 92,-6 96,-2 96,82 0,47 -4,77 -12,83 -21,16 -128,16 -134,0 z m 46,-47 c 0,-11 -4,-20 -10,-20 -5,0 -10,9 -10,20 0,11 5,20 10,20 6,0 10,-9 10,-20 z m 70,5 c 0,-21 -30,-31 -41,-14 -14,23 -11,29 16,29 16,0 25,-6 25,-15 z m -60,-65 c 0,-11 -7,-20 -15,-20 -8,0 -15,9 -15,20 0,11 7,20 15,20 8,0 15,-9 15,-20 z m 60,-5 c 0,-25 -23,-35 -35,-15 -10,16 2,40 20,40 9,0 15,-9 15,-25 z"
       id="path66" />
    <path
       d="m 1707,724 c -4,-4 -7,-40 -7,-81 v -73 l 38,-2 c 106,-5 106,-5 115,34 5,20 5,56 0,80 l -9,43 -65,3 c -36,2 -68,0 -72,-4 z m 48,-44 c 0,-7 -6,-15 -12,-17 -8,-3 -13,4 -13,17 0,13 5,20 13,18 6,-3 12,-11 12,-18 z m 65,0 c 0,-13 -7,-20 -20,-20 -13,0 -20,7 -20,20 0,13 7,20 20,20 13,0 20,-7 20,-20 z m -62,-63 c 2,-10 -3,-17 -12,-17 -10,0 -16,9 -16,21 0,24 23,21 28,-4 z m 62,4 c 0,-11 -5,-23 -11,-27 -15,-9 -33,12 -26,30 9,23 37,20 37,-3 z"
       id="path68" />
    <path
       d="m 1050,699 c 0,-5 5,-7 10,-4 6,3 10,8 10,11 0,2 -4,4 -10,4 -5,0 -10,-5 -10,-11 z"
       id="path70" />
    <path
       d="m 710,690 c 0,-5 7,-10 15,-10 8,0 15,5 15,10 0,6 -7,10 -15,10 -8,0 -15,-4 -15,-10 z"
       id="path72" />
    <path
       d="m 850,595 c 0,-17 2,-18 24,-9 18,7 12,24 -10,24 -8,0 -14,-7 -14,-15 z"
       id="path74" />
    <path
       d="m 838,553 c -21,-5 -24,-23 -4,-23 8,0 16,7 20,15 3,8 4,14 3,14 -1,-1 -10,-3 -19,-6 z"
       id="path76" />
    <path
       d="m 1630,540 c 0,-5 5,-10 10,-10 6,0 10,5 10,10 0,6 -4,10 -10,10 -5,0 -10,-4 -10,-10 z"
       id="path78" />
    <path
       d="m 1520,529 c 0,-5 5,-7 10,-4 6,3 10,8 10,11 0,2 -4,4 -10,4 -5,0 -10,-5 -10,-11 z"
       id="path80" />
    <path
       d="m 1720,530 c 0,-5 4,-10 9,-10 6,0 13,5 16,10 3,6 -1,10 -9,10 -9,0 -16,-4 -16,-10 z"
       id="path82" />
    <path
       d="m 1180,520 c 0,-5 7,-10 15,-10 8,0 15,5 15,10 0,6 -7,10 -15,10 -8,0 -15,-4 -15,-10 z"
       id="path84" />
    <path
       d="m 910,510 c 0,-5 5,-10 10,-10 6,0 10,5 10,10 0,6 -4,10 -10,10 -5,0 -10,-4 -10,-10 z"
       id="path86" />
    <path
       d="m 1705,460 c -4,-6 12,-10 40,-10 28,0 44,4 40,10 -3,6 -21,10 -40,10 -19,0 -37,-4 -40,-10 z"
       id="path88" />
    <path
       d="m 950,450 c 0,-5 7,-10 15,-10 8,0 15,5 15,10 0,6 -7,10 -15,10 -8,0 -15,-4 -15,-10 z"
       id="path90" />
    <path
       d="m 1620,450 c 0,-5 16,-10 35,-10 19,0 35,5 35,10 0,6 -16,10 -35,10 -19,0 -35,-4 -35,-10 z"
       id="path92" />
    <path
       d="m 1520,440 c 0,-5 9,-10 20,-10 11,0 20,5 20,10 0,6 -9,10 -20,10 -11,0 -20,-4 -20,-10 z"
       id="path94" />
    <path
       d="m 1580,440 c 0,-5 5,-10 10,-10 6,0 10,5 10,10 0,6 -4,10 -10,10 -5,0 -10,-4 -10,-10 z"
       id="path96" />
    <path
       d="m 1800,440 c 0,-5 9,-10 20,-10 11,0 20,5 20,10 0,6 -9,10 -20,10 -11,0 -20,-4 -20,-10 z"
       id="path98" />
    <path
       d="m 1320,425 c 0,-17 2,-18 24,-9 18,7 12,24 -10,24 -8,0 -14,-7 -14,-15 z"
       id="path100" />
    <path
       d="m 970,420 c 0,-5 7,-10 15,-10 8,0 15,5 15,10 0,6 -7,10 -15,10 -8,0 -15,-4 -15,-10 z"
       id="path102" />
    <path
       d="m 1790,400 c 0,-5 14,-10 30,-10 17,0 30,5 30,10 0,6 -13,10 -30,10 -16,0 -30,-4 -30,-10 z"
       id="path104" />
    <path
       d="m 1308,383 c -21,-5 -24,-23 -4,-23 8,0 16,7 20,15 3,8 4,14 3,14 -1,-1 -10,-3 -19,-6 z"
       id="path106" />
    <path
       d="m 1380,340 c 0,-5 5,-10 10,-10 6,0 10,5 10,10 0,6 -4,10 -10,10 -5,0 -10,-4 -10,-10 z"
       id="path108" />
    <path
       d="m 1420,280 c 0,-5 7,-10 15,-10 8,0 15,5 15,10 0,6 -7,10 -15,10 -8,0 -15,-4 -15,-10 z"
       id="path110" />
    <path
       d="m 1440,250 c 0,-5 7,-10 15,-10 8,0 15,5 15,10 0,6 -7,10 -15,10 -8,0 -15,-4 -15,-10 z"
       id="path112" />
  </g>
</svg>
