<?xml version="1.0" encoding="UTF-8" standalone="no"?>
<!-- Created with Inkscape (http://www.inkscape.org/) -->

<svg
   width="230"
   height="50"
   viewBox="0 0 60.854165 13.229166"
   version="1.1"
   xmlns="http://www.w3.org/2000/svg"
   xmlns:svg="http://www.w3.org/2000/svg">    
   <g aria-label="EMISSARY">
   <path
      d="M 6.4453801,5.0588577 C 6.8792954,4.6249425 7.3343773,4.2439437 7.8212091,3.8946948 7.0486282,3.1432805 6.2231308,2.7516984 5.1013011,2.7516984 c -2.3600759,0 -4.19098669,1.7568278 -4.19098669,4.1380702 0,2.2224929 1.60866159,3.9899044 3.68298829,3.9899044 1.6933279,0 2.7834078,-1.1747467 3.6935716,-2.4024095 L 7.9376254,8.106848 C 7.4613769,8.7735959 6.582963,9.7472595 5.2283007,9.7472595 c -1.5134119,0 -2.5611586,-1.2064962 -2.7939911,-2.6775748 l 3.3972391,0.1587495 c 0.4127487,0.021167 0.634998,0.1904994 0.6667479,0.5291649 H 6.688796 C 6.9851284,7.0591014 7.3132107,6.4029368 7.6942095,5.8420219 L 2.3813931,6.4981865 c 0,-1.8097442 1.1218297,-2.8469076 2.4235756,-2.8469076 0.8995804,0 1.4075788,0.4974151 1.4075788,0.9313304 0,0.0635 -0.010583,0.105833 -0.021167,0.1587495 z"
      />
   <path
      d="m 17.282672,2.8363648 h -3.07974 l -0.04233,0.5185817 c 0.328082,0 0.582081,0.09525 0.582081,0.2751658 0,0.3598322 -0.941913,2.3177426 -1.534578,3.3019895 C 12.520187,5.7361889 11.895773,4.3074435 11.281941,2.8363648 H 9.0911982 L 9.048865,3.3126133 c 0.3069157,0.084666 0.4762485,0.423332 0.4762485,1.0054135 v 5.2810665 c 0,1.2276627 -0.2222493,2.2119097 -0.6773312,2.9633237 L 9.0700316,12.7 C 9.9590288,11.789836 10.403527,10.71034 10.403527,9.4615104 V 4.963608 c 0.772581,1.799161 1.523995,3.3019895 2.391826,4.8577346 0.888997,-1.693328 1.661578,-3.354906 2.328326,-5.1011504 v 4.4661524 c 0,0.7090811 -0.190499,1.0583304 -0.613831,1.0583304 l -0.04233,0.486831 h 2.931574 l 0.04233,-0.412748 C 16.944007,10.308174 16.679424,9.906009 16.679424,9.0910949 V 4.0216944 c 0,-0.4762485 0.169333,-0.7090811 0.560915,-0.7196644 z"
      />
   <path
      d="M 22.30973,2.8363648 H 18.94424 C 18.827824,2.4341994 18.584408,2.2648666 18.150493,2.2648666 c -0.391582,0 -0.603248,0.1375829 -0.603248,0.423332 0,0.2963324 0.222249,0.4656652 0.666748,0.4656652 0.93133,0.1269996 1.396995,0.4444986 1.396995,0.9630803 v 5.4503993 c 0,0.4868316 -0.359832,0.7302476 -1.132413,0.7302476 l -0.04233,0.433915 h 3.354906 c 0.127,0.402166 0.370415,0.571499 0.793747,0.571499 0.391583,0 0.603249,-0.137583 0.603249,-0.423332 0,-0.296333 -0.22225,-0.465666 -0.666748,-0.465666 -0.92075,-0.116416 -1.386416,-0.4444982 -1.386416,-0.9630799 V 3.9899445 c 0,-0.4762485 0.359833,-0.7090811 1.132413,-0.7090811 z"
      />
   <path
      d="M 28.024685,5.0800243 C 28.500934,4.6884423 28.998349,4.4238598 29.495764,4.2862769 28.7761,3.6406956 27.940019,3.0797807 26.881689,2.6141155 c -2.24366,1.0477467 -3.746488,1.7885777 -3.746488,3.1114901 0,0.5397483 0.243416,1.1853296 0.740831,1.8732441 0.423332,-0.1587495 1.047747,-0.2328326 1.640411,-0.2328326 1.523995,0 2.762242,0.497415 2.762242,1.8203275 0,0.211666 -0.03175,0.4868318 -0.105833,0.7514143 -0.412749,0.1587491 -0.783165,0.2434161 -1.174747,0.2434161 -0.857247,0 -1.587495,-0.3915823 -2.264826,-1.545162 -0.465665,0.3069157 -1.015997,0.5820815 -1.650995,0.8043308 0.624415,0.7090812 2.021411,1.3440792 3.026824,1.6192452 1.502829,-0.285749 3.619489,-1.1006635 3.619489,-2.6881585 0,-0.4868318 -0.201083,-1.344079 -0.529165,-2.0531601 -0.761998,0.3386656 -1.682745,0.4550819 -2.33891,0.4550819 -1.439328,0 -2.127243,-0.5609149 -2.127243,-1.5663284 0,-0.3704155 0.09525,-0.7302476 0.285749,-1.1218297 0.370416,-0.1375829 0.709081,-0.211666 1.02658,-0.211666 0.931331,0 1.725078,0.634998 1.979077,1.2064961 z"
      />
   <path
      d="m 35.31655,5.0800243 c 0.476248,-0.391582 0.973663,-0.6561645 1.471078,-0.7937474 -0.719664,-0.6455813 -1.555745,-1.2064962 -2.614075,-1.6721614 -2.243659,1.0477467 -3.746488,1.7885777 -3.746488,3.1114901 0,0.5397483 0.243416,1.1853296 0.740831,1.8732441 0.423332,-0.1587495 1.047747,-0.2328326 1.640412,-0.2328326 1.523995,0 2.762241,0.497415 2.762241,1.8203275 0,0.211666 -0.03175,0.4868318 -0.105833,0.7514143 -0.412749,0.1587491 -0.783164,0.2434161 -1.174746,0.2434161 -0.857248,0 -1.587495,-0.3915823 -2.264826,-1.545162 -0.465666,0.3069157 -1.015997,0.5820815 -1.650995,0.8043308 0.624415,0.7090812 2.02141,1.3440792 3.026824,1.6192452 1.502828,-0.285749 3.619488,-1.1006635 3.619488,-2.6881585 0,-0.4868318 -0.201083,-1.344079 -0.529165,-2.0531601 -0.761998,0.3386656 -1.682745,0.4550819 -2.338909,0.4550819 -1.439329,0 -2.127243,-0.5609149 -2.127243,-1.5663284 0,-0.3704155 0.09525,-0.7302476 0.285749,-1.1218297 0.370415,-0.1375829 0.709081,-0.211666 1.02658,-0.211666 0.93133,0 1.725078,0.634998 1.979077,1.2064961 z"
      />
   <path
      d="m 42.047504,3.3761131 c 0.592665,0 0.783164,0.1799161 0.846664,0.7725809 l 0.222249,2.0214102 h -2.11666 C 41.084424,5.4398565 41.20084,4.3286101 41.20084,3.3761131 Z m 2.751658,-0.5397483 h -6.148897 l -0.105833,0.5397483 h 2.074327 c -0.22225,4.3179863 -1.830911,6.1488971 -2.476492,6.1488971 -0.07408,0 -0.148167,-0.021167 -0.22225,-0.0635 l -0.211666,0.2222493 c 0.476249,0.4233325 0.910164,0.8043305 1.301746,1.1747465 0.783164,-0.9419139 1.354662,-2.0637437 1.714495,-3.3760728 h 2.518825 l 0.116416,0.8678305 c 0.04233,0.3280823 0.07408,0.7090811 0.07408,0.8784139 0,0.6879145 -0.560915,1.0689134 -1.89441,1.0689134 l -0.04233,0.433915 h 4.085153 l 0.04233,-0.455082 c -0.423332,0 -0.677331,-0.4021651 -0.761997,-1.1959126 L 44.333497,4.1698606 C 44.269997,3.5877791 44.47108,3.30203 44.756829,3.30203 Z"
      />
   <path
      d="m 48.365733,4.8366084 c 0.137583,-1.3123291 1.037163,-1.5874949 1.566328,-1.5874949 0.571499,0 0.952497,0.317499 0.952497,1.1006632 0,0.5291649 -0.169332,1.0583299 -0.96308,1.6086615 l -1.555745,1.0794966 z m 2.592908,1.1429964 c 0.941914,-0.6455813 1.418163,-1.0794966 1.418163,-1.7779943 0,-0.8678306 -0.740831,-1.4499121 -2.222493,-1.4499121 -1.227663,0 -1.777995,0.4021654 -2.645825,0.7619976 -0.582082,0.2434159 -0.984247,0.3280823 -1.375829,0.3280823 l -0.04233,0.4021654 c 0.444498,0.021167 0.687914,0.317499 0.687914,0.8889971 v 4.20157 c 0,0.423332 -0.222249,0.7937472 -0.730248,1.1006632 l 0.296333,0.433915 c 0.264582,-0.201082 0.783164,-0.455082 1.460495,-0.455082 0.455082,0 0.99483,0.116417 1.492245,0.254 V 10.022425 C 48.651482,9.694343 48.376316,9.2286778 48.376316,8.6254297 V 7.7575991 l 0.550332,-0.3809987 c 0.846664,0.9736635 1.767411,2.1378265 2.783408,3.6300716 0.80433,-0.814914 1.418162,-1.418162 1.852077,-1.7674109 L 53.339884,8.9852619 c -0.285749,0.2328326 -0.560915,0.3492489 -0.761998,0.3492489 -0.730247,0 -1.947327,-1.5345785 -2.529408,-2.7304913 z"
      />
   <path
      d="m 56.049196,4.3074435 c 0.232832,-0.074083 0.486831,-0.105833 0.709081,-0.105833 1.312329,0 2.05316,1.1641629 2.05316,2.4235756 0,1.0794966 -0.550332,1.8309108 -1.608662,2.7939911 C 55.985696,8.2020977 55.572947,7.3766004 55.424781,5.8949384 55.276615,4.4026932 55.191948,3.6406956 54.377034,2.8363648 h -1.693328 v 0.317499 c 1.05833,0.8572473 1.111247,1.7250778 1.195913,3.14324 0.08467,1.3969956 0.465665,2.3812424 2.18016,4.2121532 -0.306916,0.285749 -0.433915,0.592665 -0.433915,0.920747 0,0.539748 0.338665,1.248829 1.217079,1.248829 0.804331,0 1.725078,-0.603248 2.328326,-1.703911 l -0.296332,-0.179916 c -0.656165,0.529165 -1.05833,0.709081 -1.418163,0.709081 -0.444498,0 -0.645581,-0.275166 -0.645581,-0.656164 0,-0.148167 0.03175,-0.328083 0.105833,-0.455082 1.979077,-1.6192451 3.026824,-3.0691571 3.026824,-4.8894847 0,-1.8097442 -1.047747,-2.6987414 -2.296576,-2.6987414 -0.137583,0 -0.285749,0.010583 -0.391582,0.042333 -0.243416,0.4868318 -0.645581,0.8995805 -1.24883,1.2488294 z"
      />
   </g>  
</svg>
